<svg width="18" height="18" fill="none" xmlns="http://www.w3.org/2000/svg"><g clip-path="url(#clip0_95_5603)" fill="#fff"><path d="M12.21 8.04a.563.563 0 010 .796L8.835 12.21a.563.563 0 01-.796 0l-1.688-1.688a.564.564 0 01.797-.796l1.29 1.29 2.976-2.978a.562.562 0 01.796 0z"/><path d="M3.938 0A.563.563 0 014.5.563v.562h9V.562a.563.563 0 011.125 0v.563h1.125A2.25 2.25 0 0118 3.375V15.75A2.25 2.25 0 0115.75 18H2.25A2.25 2.25 0 010 15.75V3.375a2.25 2.25 0 012.25-2.25h1.125V.562A.562.562 0 013.938 0zM1.124 4.5v11.25a1.125 1.125 0 001.125 1.125h13.5a1.125 1.125 0 001.125-1.125V4.5H1.125z"/></g><defs><clipPath id="clip0_95_5603"><path fill="#fff" d="M0 0h18v18H0z"/></clipPath></defs></svg>