<svg width="18" height="18" fill="none" xmlns="http://www.w3.org/2000/svg"><path d="M16.875 3.094a.844.844 0 01-.844.844h-4.5a.844.844 0 010-1.688h4.5a.844.844 0 01.844.844zm-9.563.844v1.406a.844.844 0 101.688 0v-4.5a.844.844 0 10-1.688 0V2.25H1.97a.844.844 0 100 1.688h5.343zM8.72 9.843a.844.844 0 100-1.688H1.97a.844.844 0 100 1.688h6.75zM16.875 9a.844.844 0 01-.844.844h-3.093v1.406a.844.844 0 11-1.688 0v-4.5a.844.844 0 011.688 0v1.406h3.093a.844.844 0 01.844.844zM6.75 14.906v-2.25a.844.844 0 00-1.688 0v1.406H1.97a.844.844 0 000 1.688h3.093v1.406a.844.844 0 001.688 0v-2.25zm10.125 0a.844.844 0 01-.844.844h-6.75a.844.844 0 010-1.688h6.75a.844.844 0 01.844.844z" fill="#fff"/></svg>