<svg width="18" height="18" fill="none" xmlns="http://www.w3.org/2000/svg"><path d="M10.072 7.4a.707.707 0 00-.72.704c0 .388.314.703.72.703a.7.7 0 00.686-.703.7.7 0 00-.686-.704zm-4.922 0a.707.707 0 00-.72.704c0 .388.314.703.72.703a.7.7 0 00.686-.703.7.7 0 00-.686-.704z" fill="#fff"/><path d="M15.715 6.065a6.045 6.045 0 00-3.323-2.286v.002c-.3-.334-.64-.641-1.02-.916C8.496.773 4.457 1.412 2.356 4.29a6.446 6.446 0 00.106 7.717l.014 2.33a.562.562 0 00.731.533l2.225-.701c.59.21 1.197.329 1.802.362l-.009.007a6.108 6.108 0 005.502.861l2.234.728a.562.562 0 00.736-.534v-2.356a6.08 6.08 0 00.019-7.171zM5.678 12.92l-.211-.088-1.74.545-.018-1.828-.14-.158a5.203 5.203 0 01-.194-6.346 5.209 5.209 0 017.26-1.16c2.323 1.69 2.838 4.932 1.16 7.242a5.227 5.227 0 01-6.117 1.793zm8.877-.299l-.141.176.017 1.828-1.722-.58-.211.088a4.854 4.854 0 01-3.006.123l-.004-.002a6.457 6.457 0 003.326-2.371 6.448 6.448 0 00.78-6.16l.011.008c.404.29.775.652 1.09 1.09a4.772 4.772 0 01-.14 5.8z" fill="#fff"/><path d="M7.611 7.4a.707.707 0 00-.72.704c0 .388.314.703.72.703a.7.7 0 00.686-.703.7.7 0 00-.686-.704z" fill="#fff"/></svg>