<svg width="18" height="18" fill="none" xmlns="http://www.w3.org/2000/svg"><g clip-path="url(#clip0_95_5618)" fill="#fff"><path d="M9 5.25a3.75 3.75 0 100 7.5 3.75 3.75 0 000-7.5z"/><path fill-rule="evenodd" clip-rule="evenodd" d="M9 .75a.75.75 0 01.75.75v.75a.75.75 0 01-1.5 0V1.5A.75.75 0 019 .75zM2.47 2.47a.75.75 0 011.06 0l1.125 1.125a.75.75 0 01-1.06 1.06L2.47 3.53a.75.75 0 010-1.06zm13.06 0a.75.75 0 010 1.06l-1.125 1.125a.75.75 0 11-1.06-1.06L14.47 2.47a.75.75 0 011.06 0zM.75 9a.75.75 0 01.75-.75h.75a.75.75 0 010 1.5H1.5A.75.75 0 01.75 9zM15 9a.75.75 0 01.75-.75h.75a.75.75 0 110 1.5h-.75A.75.75 0 0115 9zM4.655 13.345a.75.75 0 010 1.06L3.53 15.53a.75.75 0 01-1.06-1.06l1.125-1.125a.75.75 0 011.06 0zm8.69 0a.75.75 0 011.06 0l1.125 1.125a.75.75 0 01-1.06 1.06l-1.125-1.125a.75.75 0 010-1.06zM9 15a.75.75 0 01.75.75v.75a.75.75 0 11-1.5 0v-.75A.75.75 0 019 15z"/></g><defs><clipPath id="clip0_95_5618"><path fill="#fff" d="M0 0h18v18H0z"/></clipPath></defs></svg>