<svg width="18" height="18" fill="none" xmlns="http://www.w3.org/2000/svg"><path d="M9.75 4.125A2.628 2.628 0 007.125 1.5c-1.526 0-2.438 1.144-2.438 2.25h1.5c0-.311.292-.75.938-.75.62 0 1.125.505 1.125 1.125S7.745 5.25 7.125 5.25H1.5v1.5h5.625A2.628 2.628 0 009.75 4.125zm1.875 7.125H6v1.5h5.625c.62 0 1.125.505 1.125 1.125S12.245 15 11.625 15c-.646 0-.938-.439-.938-.75h-1.5c0 1.106.913 2.25 2.438 2.25a2.628 2.628 0 002.625-2.625 2.628 2.628 0 00-2.625-2.625z" fill="#fff"/><path d="M13.5 3.75c-1.655 0-3 1.346-3 3H12c0-.827.673-1.5 1.5-1.5s1.5.673 1.5 1.5-.673 1.5-1.5 1.5h-12v1.5h12c1.655 0 3-1.345 3-3 0-1.654-1.345-3-3-3zm-12 7.5h3v1.5h-3v-1.5z" fill="#fff"/></svg>