<svg width="18" height="18" fill="none" xmlns="http://www.w3.org/2000/svg"><g clip-path="url(#clip0_95_5616)"><path d="M4.677 13.528a.56.56 0 01.356.712l-.563 1.688a.563.563 0 11-1.066-.356l.562-1.687a.563.563 0 01.711-.357zm3.375 0a.56.56 0 01.356.712l-1.125 3.375a.563.563 0 11-1.067-.355l1.125-3.375a.563.563 0 01.711-.357zm3.376 0a.561.561 0 01.355.712l-.563 1.688a.562.562 0 11-1.066-.356l.563-1.687a.563.563 0 01.71-.357zm3.374 0a.561.561 0 01.356.712l-1.125 3.375a.562.562 0 11-1.066-.355l1.124-3.375a.563.563 0 01.712-.357zm.278-7.873a5.627 5.627 0 00-10.686-1.13 3.938 3.938 0 10-.457 7.85h10.688a3.375 3.375 0 00.455-6.72z" fill="#fff"/></g><defs><clipPath id="clip0_95_5616"><path fill="#fff" d="M0 0h18v18H0z"/></clipPath></defs></svg>