<svg width="18" height="19" fill="none" xmlns="http://www.w3.org/2000/svg"><path d="M16.235 12.515c-.494.198-1.326.455-2.217.692-.297.535-.87 1.008-1.781 1.205-.219.042-.456.08-.713.1-.634.04-1.406 0-2.256-.02h-.179c-.199-.02-.396-.158-.416-.355a.4.4 0 01.436-.454h.197c1.09.039 2.119.098 2.752-.06 1.188-.277 1.485-1.008 1.385-1.622-.078-.474-.474-.95-1.067-.87-.832.099-1.822.06-2.792.04-1.108-.04-2.238-.02-3.03.099-.89.138-2.671.87-4.215 2.016A64.556 64.556 0 00.22 14.928a.574.574 0 00-.078.83l2.434 2.907a.595.595 0 00.833.078l.83-.69a.83.83 0 01.713-.16c1.584.436 3.267.692 4.354.712 2.376.02 6.849-2.966 8.117-3.934 1.267-.97.257-2.749-1.188-2.156zM9.566 7.377h1.022c0 .38-.06.901-.275 1.443a.69.69 0 00.177.74.62.62 0 00.412.162c.1 0 .217-.02.315-.08 1.022-.602 1.906-1.624 2.36-2.265h1.453c1.024 0 1.848-.843 1.848-1.885V1.885C16.878.843 16.054 0 15.03 0H9.566C8.544 0 7.718.843 7.718 1.885v3.607c0 1.042.826 1.885 1.848 1.885z" fill="#fff"/></svg>