<svg width="40" height="31" fill="none" xmlns="http://www.w3.org/2000/svg"><g clip-path="url(#clip0_201_319)"><path d="M7.272 30.846v-2.052c0-.787-.48-1.3-1.304-1.3-.411 0-.857.137-1.166.582-.24-.376-.583-.581-1.097-.581-.343 0-.686.102-.96.478v-.41h-.721v3.283h.72v-1.813c0-.58.309-.855.79-.855.48 0 .72.308.72.855v1.813h.72v-1.813c0-.58.343-.855.789-.855.48 0 .72.308.72.855v1.813h.79zm10.667-3.283h-1.166v-.992h-.72v.992h-.652v.65h.652v1.505c0 .752.309 1.196 1.132 1.196.309 0 .651-.102.892-.239l-.206-.616a1.13 1.13 0 01-.617.171c-.344 0-.48-.205-.48-.547v-1.47h1.165v-.65zm6.106-.069a.968.968 0 00-.858.48v-.41h-.72v3.282h.72v-1.847c0-.547.24-.855.686-.855.138 0 .31.035.446.069l.206-.684c-.137-.034-.343-.034-.48-.034zm-9.227.343c-.343-.24-.823-.342-1.338-.342-.823 0-1.372.41-1.372 1.06 0 .547.412.855 1.132.957l.343.035c.378.068.583.17.583.341 0 .24-.274.41-.754.41s-.858-.17-1.098-.341l-.343.547c.377.274.892.41 1.406.41.96 0 1.51-.444 1.51-1.06 0-.581-.446-.889-1.132-.991l-.343-.035c-.309-.034-.549-.102-.549-.307 0-.24.24-.377.617-.377.412 0 .824.171 1.03.274l.308-.581zm19.14-.342a.968.968 0 00-.858.478v-.41h-.72v3.283h.72v-1.847c0-.547.24-.855.686-.855.138 0 .31.035.446.069l.206-.684c-.137-.034-.343-.034-.48-.034zm-9.193 1.71c0 .991.686 1.71 1.75 1.71.48 0 .823-.103 1.166-.377l-.343-.581c-.274.205-.549.308-.858.308-.583 0-.994-.41-.994-1.06 0-.616.411-1.026.994-1.06.31 0 .584.102.858.307l.343-.581c-.343-.274-.686-.376-1.166-.376-1.064 0-1.75.718-1.75 1.71zm6.655 0v-1.642h-.72v.41c-.24-.307-.584-.478-1.03-.478-.926 0-1.646.718-1.646 1.71 0 .991.72 1.71 1.646 1.71.48 0 .824-.172 1.03-.48v.41h.72v-1.64zm-2.642 0c0-.582.378-1.06.995-1.06.583 0 .995.444.995 1.06 0 .58-.412 1.06-.995 1.06-.617-.035-.994-.48-.994-1.06zm-8.609-1.71c-.96 0-1.646.683-1.646 1.71 0 1.026.686 1.71 1.68 1.71.48 0 .96-.137 1.338-.445l-.343-.513a1.642 1.642 0 01-.96.342c-.446 0-.892-.205-.995-.787h2.435v-.273c.035-1.06-.583-1.744-1.51-1.744h.001zm0 .615c.446 0 .755.274.823.787h-1.715c.069-.445.378-.787.892-.787zm17.87 1.095v-2.941h-.72v1.71c-.24-.308-.583-.48-1.029-.48-.926 0-1.646.719-1.646 1.71 0 .992.72 1.71 1.646 1.71.48 0 .824-.17 1.03-.478v.41h.72v-1.642zm-2.64 0c0-.582.377-1.06.994-1.06.583 0 .995.444.995 1.06 0 .58-.412 1.06-.995 1.06-.617-.035-.994-.48-.994-1.06zm-24.08 0v-1.642h-.72v.41c-.24-.307-.583-.478-1.029-.478-.926 0-1.646.718-1.646 1.71 0 .991.72 1.71 1.646 1.71.48 0 .823-.172 1.03-.48v.41h.72v-1.64zm-2.675 0c0-.582.377-1.06.995-1.06.583 0 .995.444.995 1.06 0 .58-.412 1.06-.995 1.06-.618-.035-.995-.48-.995-1.06z" fill="#000"/><path d="M14.578 2.633h10.804V21.99H14.578V2.633z" fill="#FF5F00"/><path d="M15.264 12.311c0-3.933 1.852-7.42 4.699-9.678A12.295 12.295 0 0012.348 0C5.522 0 0 5.506 0 12.311s5.522 12.311 12.348 12.311a12.3 12.3 0 007.615-2.633 12.28 12.28 0 01-4.7-9.678z" fill="#EB001B"/><path d="M39.96 12.311c0 6.805-5.522 12.311-12.348 12.311-2.881 0-5.522-.992-7.614-2.633a12.228 12.228 0 004.699-9.678c0-3.933-1.853-7.42-4.7-9.678A12.295 12.295 0 0127.613 0c6.826 0 12.349 5.54 12.349 12.311z" fill="#F79E1B"/></g><defs><clipPath id="clip0_201_319"><path fill="#fff" d="M0 0h40v31H0z"/></clipPath></defs></svg>