<svg width="21" height="18" fill="none" xmlns="http://www.w3.org/2000/svg"><path d="M21 13.845a3.265 3.265 0 01-3.26 3.26H0V4.192A3.265 3.265 0 013.26.932H21v12.913z" fill="#fff"/><path d="M15.224 10.533h1.348c.038 0 .128-.013.166-.013a.601.601 0 00.475-.603.623.623 0 00-.475-.603c-.038-.013-.115-.013-.166-.013h-1.348v1.232z" fill="url(#paint0_linear_113_7273)"/><path d="M16.418 2.023a2.337 2.337 0 00-2.337 2.336v2.426h3.3c.076 0 .166 0 .23.013.745.038 1.297.423 1.297 1.09 0 .527-.373.976-1.066 1.066v.026c.758.051 1.335.475 1.335 1.13 0 .706-.642 1.168-1.489 1.168h-3.62v4.75h3.428a2.337 2.337 0 002.336-2.337V2.023h-3.415z" fill="url(#paint1_linear_113_7273)"/><path d="M17.047 8.043a.546.546 0 00-.476-.552c-.025 0-.09-.013-.128-.013h-1.22v1.13h1.22c.039 0 .116 0 .129-.013a.546.546 0 00.475-.552z" fill="url(#paint2_linear_113_7273)"/><path d="M3.504 2.023a2.337 2.337 0 00-2.336 2.336v5.764c.655.32 1.335.526 2.015.526.809 0 1.245-.488 1.245-1.156v-2.72h2.003V9.48c0 1.052-.655 1.912-2.875 1.912-1.348 0-2.4-.295-2.4-.295v4.916h3.427a2.336 2.336 0 002.336-2.336V2.023H3.504z" fill="url(#paint3_linear_113_7273)"/><path d="M9.96 2.023a2.337 2.337 0 00-2.335 2.336v3.055c.59-.5 1.617-.822 3.273-.745.886.039 1.835.283 1.835.283v.988a4.444 4.444 0 00-1.77-.513c-1.259-.09-2.016.526-2.016 1.604 0 1.091.757 1.707 2.015 1.605.732-.051 1.297-.282 1.771-.514v.989s-.937.244-1.835.282c-1.656.077-2.683-.244-3.273-.744v5.39h3.427a2.337 2.337 0 002.336-2.335V2.023H9.961z" fill="url(#paint4_linear_113_7273)"/><defs><linearGradient id="paint0_linear_113_7273" x1="14.079" y1="9.918" x2="19.848" y2="9.918" gradientUnits="userSpaceOnUse"><stop stop-color="#007940"/><stop offset=".229" stop-color="#00873F"/><stop offset=".743" stop-color="#40A737"/><stop offset="1" stop-color="#5CB531"/></linearGradient><linearGradient id="paint1_linear_113_7273" x1="14.079" y1="9.019" x2="19.848" y2="9.019" gradientUnits="userSpaceOnUse"><stop stop-color="#007940"/><stop offset=".229" stop-color="#00873F"/><stop offset=".743" stop-color="#40A737"/><stop offset="1" stop-color="#5CB531"/></linearGradient><linearGradient id="paint2_linear_113_7273" x1="14.079" y1="8.041" x2="19.848" y2="8.041" gradientUnits="userSpaceOnUse"><stop stop-color="#007940"/><stop offset=".229" stop-color="#00873F"/><stop offset=".743" stop-color="#40A737"/><stop offset="1" stop-color="#5CB531"/></linearGradient><linearGradient id="paint3_linear_113_7273" x1="1.165" y1="9.019" x2="7.023" y2="9.019" gradientUnits="userSpaceOnUse"><stop stop-color="#1F286F"/><stop offset=".475" stop-color="#004E94"/><stop offset=".826" stop-color="#0066B1"/><stop offset="1" stop-color="#006FBC"/></linearGradient><linearGradient id="paint4_linear_113_7273" x1="7.591" y1="9.019" x2="13.281" y2="9.019" gradientUnits="userSpaceOnUse"><stop stop-color="#6C2C2F"/><stop offset=".173" stop-color="#882730"/><stop offset=".573" stop-color="#BE1833"/><stop offset=".859" stop-color="#DC0436"/><stop offset="1" stop-color="#E60039"/></linearGradient></defs></svg>