<svg width="24" height="16" fill="none" xmlns="http://www.w3.org/2000/svg"><path d="M2.385 0h19.477c.768 0 1.391.623 1.391 1.392v13.217c0 .768-.623 1.391-1.39 1.391H2.384a1.391 1.391 0 01-1.392-1.391V1.392A1.394 1.394 0 012.385 0z" fill="#26A6D1"/><path d="M4.583 5.565L2.385 10.43h2.631l.326-.776h.746l.326.776h2.897v-.592l.258.592h1.498l.259-.605v.605h6.024l.732-.756.686.756 3.094.006-2.205-2.425 2.205-2.446h-3.046l-.713.742-.664-.742h-6.554l-.563 1.256-.575-1.256H7.12v.572l-.293-.572H4.583zm.51.691h1.282l1.458 3.299V6.256h1.405l1.126 2.365 1.038-2.365H12.8v3.49h-.85l-.007-2.735-1.24 2.736H9.94L8.694 7.01v2.736h-1.75l-.332-.783H4.819l-.33.782H3.55l1.541-3.49zm8.486 0h3.459l1.058 1.143 1.092-1.143h1.058L18.64 8.01l1.607 1.735H19.14l-1.058-1.157-1.098 1.157H13.58V6.256zm-7.863.59l-.59 1.395h1.18l-.59-1.394zm8.717.133v.637h1.887v.71h-1.887v.696h2.117l.983-1.025-.942-1.019h-2.158z" fill="#fff"/></svg>