<svg width="57" height="39" fill="none" xmlns="http://www.w3.org/2000/svg"><path d="M55.812 6.454a6.616 6.616 0 00-1.82-3.016 7.244 7.244 0 00-3.177-1.762C46.355.5 28.485.5 28.485.5A181.97 181.97 0 006.184 1.616a7.505 7.505 0 00-3.178 1.805 6.879 6.879 0 00-1.847 3.03A69.089 69.089 0 00-.001 19.5a68.963 68.963 0 001.16 13.048 6.713 6.713 0 001.84 3.014 7.351 7.351 0 003.185 1.765C10.704 38.5 28.485 38.5 28.485 38.5c7.46.085 14.917-.288 22.33-1.116a7.244 7.244 0 003.178-1.763 6.602 6.602 0 001.817-3.016A67.401 67.401 0 0057 19.555a63.118 63.118 0 00-1.188-13.103v.002zM22.804 27.632V11.37l14.868 8.132-14.868 8.13z" fill="#000"/></svg>