<svg width="13" height="50" fill="none" xmlns="http://www.w3.org/2000/svg"><path d="M.76 5.208c0-.816.139-1.552.416-2.208.277-.65.672-1.19 1.184-1.616A3.972 3.972 0 014.192.56l.232 1.472c-.725.187-1.293.573-1.704 1.16-.405.592-.608 1.288-.608 2.088 0 .517.08.984.24 1.4.165.421.4.755.704 1 .304.245.664.368 1.08.368.256 0 .475-.045.656-.136.187-.085.344-.205.472-.36.133-.15.245-.32.336-.512a3.85 3.85 0 00.224-.6l.872-2.936c.096-.32.216-.63.36-.928.15-.299.333-.565.552-.8.224-.235.49-.421.8-.56.315-.139.685-.208 1.112-.208.683 0 1.264.176 1.744.528.485.357.856.84 1.112 1.448.256.608.381 1.293.376 2.056-.005.773-.144 1.464-.416 2.072a3.898 3.898 0 01-1.152 1.52c-.501.405-1.101.677-1.8.816L9.12 7.936c.47-.08.872-.259 1.208-.536a2.66 2.66 0 00.784-1.024c.187-.41.283-.861.288-1.352.005-.47-.07-.893-.224-1.272a2.206 2.206 0 00-.648-.904 1.441 1.441 0 00-.944-.336c-.352 0-.637.101-.856.304-.213.203-.384.45-.512.744-.123.299-.224.59-.304.872L7.28 6.624c-.07.25-.165.539-.288.864a4.02 4.02 0 01-.52.96c-.219.31-.512.565-.88.768-.363.203-.821.304-1.376.304-.555 0-1.048-.112-1.48-.336a3.064 3.064 0 01-1.088-.92 4.328 4.328 0 01-.656-1.376 5.894 5.894 0 01-.232-1.68zm0 11.23c0-.874.195-1.618.584-2.232a3.8 3.8 0 011.624-1.392c.688-.32 1.472-.485 2.352-.496.901.01 1.693.179 2.376.504a3.78 3.78 0 011.608 1.416c.384.614.576 1.352.576 2.216 0 .912-.224 1.696-.672 2.352a3.234 3.234 0 01-1.84 1.328l-.424-1.408c.501-.181.89-.477 1.168-.888a2.42 2.42 0 00.416-1.4c0-.592-.139-1.08-.416-1.464a2.403 2.403 0 00-1.136-.856c-.48-.187-1.032-.283-1.656-.288-.96.01-1.736.232-2.328.664-.587.438-.88 1.085-.88 1.944 0 .566.128 1.035.384 1.408.261.373.637.656 1.128.848l-.376 1.44c-.805-.299-1.421-.765-1.848-1.4-.427-.635-.64-1.4-.64-2.296zM1 23.367h8.64v1.272H7.552l.272-.208c.267.101.512.232.736.392.224.165.408.35.552.552.181.224.32.477.416.76.096.282.152.57.168.864.021.293.003.568-.056.824H8.304a2.7 2.7 0 00.064-.984 1.999 1.999 0 00-.392-.992 2.135 2.135 0 00-.72-.648 3.12 3.12 0 00-.92-.312 5.621 5.621 0 00-1-.088H1v-1.432zM.76 34.459c0-.858.195-1.6.584-2.224a3.87 3.87 0 011.616-1.432c.688-.336 1.477-.504 2.368-.504.907 0 1.701.171 2.384.512a3.809 3.809 0 011.592 1.448c.384.624.576 1.358.576 2.2 0 .864-.195 1.608-.584 2.232a3.748 3.748 0 01-1.608 1.432c-.683.336-1.47.504-2.36.504-.901 0-1.696-.168-2.384-.504a3.862 3.862 0 01-1.608-1.44C.952 36.06.76 35.318.76 34.46zm1.352 0c0 .896.299 1.563.896 2 .597.438 1.37.656 2.32.656.976 0 1.752-.221 2.328-.664.581-.442.872-1.106.872-1.992 0-.602-.136-1.098-.408-1.488a2.443 2.443 0 00-1.128-.872c-.48-.192-1.035-.288-1.664-.288-.97 0-1.75.224-2.336.672-.587.448-.88 1.107-.88 1.976zM1 42.15h11.76v1.424H1V42.15zm0 5.584h11.76v1.424H1v-1.424z" fill="#fff"/></svg>